<svg width="209" height="56" viewBox="0 0 209 56" fill="none" xmlns="http://www.w3.org/2000/svg">
<g clip-path="url(#clip0_5_2)">
<path d="M130.32 54.64H118V3.39999H130.32V54.64Z" fill="#242748"/>
<path d="M133.65 3.39999H153.53C156.61 3.39999 159.97 4.23999 162.77 5.63999C165.29 7.03999 167.53 9.28 168.93 12.08C170.33 14.88 171.17 18.24 171.17 21.6C171.17 24.96 170.61 28.04 168.93 31.12C167.53 33.64 165.29 35.88 162.77 37.28C159.97 38.68 156.61 39.52 153.53 39.52H141.49V28.88H150.73C152.13 28.88 153.53 28.6 154.65 28.04C155.77 27.48 156.61 26.64 157.17 25.52C157.73 24.4 158.01 23 158.01 21.6C158.01 20.2 157.73 18.8 157.17 17.68C156.61 16.56 155.77 15.72 154.65 15.16C153.53 14.6 152.13 14.32 150.73 14.32H145.97V54.64H133.65V3.39999Z" fill="#242748"/>
<path d="M195.942 16.9555C195.4 16.1422 194.587 15.6 193.773 15.0578C192.689 14.5155 191.604 14.5155 190.249 14.5155C189.164 14.5155 188.08 14.7867 186.996 15.0578C186.182 15.3289 185.64 15.8711 185.098 16.4133C184.556 17.2267 184.284 18.04 184.556 19.1244C184.827 19.9378 185.098 21.0222 185.911 21.5644C187.267 22.6489 188.893 23.1911 190.791 23.4622L194.587 24.2755C198.653 25.0889 202.178 26.9867 205.16 29.6978C207.6 32.4089 208.684 35.9333 208.684 39.4578C208.684 42.44 208.142 45.1511 206.516 47.5911C204.889 50.0311 202.72 51.6578 200.28 52.7422C197.298 54.0978 193.773 54.64 190.52 54.64C186.996 54.64 183.471 54.0978 180.218 52.7422C177.507 51.6578 175.067 49.4889 173.44 46.7778C171.813 43.7955 171 40.2711 171 36.7467H182.387C182.387 38.1022 182.658 39.4578 183.471 40.5422C184.013 41.6267 185.098 42.44 186.182 42.9822C187.538 43.5244 188.893 43.7956 190.249 43.7956C191.333 43.7956 192.689 43.5244 193.773 43.2533C194.587 42.9822 195.4 42.44 195.942 41.6267C196.484 41.0844 196.756 40.2711 196.756 39.1867C196.756 38.3733 196.484 37.56 195.942 37.0178C195.4 36.2044 194.587 35.6622 193.773 35.3911C192.418 34.8489 191.062 34.3067 189.707 34.0355L185.098 32.9511C181.573 32.4089 178.32 30.5111 175.609 28.0711C174.524 26.7155 173.711 25.36 173.169 23.7333C172.627 22.1067 172.356 20.48 172.627 18.8533C172.627 15.8711 173.44 13.16 175.067 10.72C176.693 8.27999 178.862 6.38222 181.573 5.29777C184.556 3.94222 187.809 3.39999 191.062 3.39999C194.316 3.39999 197.569 3.94222 200.551 5.29777C202.991 6.65333 205.16 8.55111 206.787 10.9911C208.413 13.4311 208.956 16.4133 208.956 19.3955H197.569C196.756 18.8533 196.484 17.7689 195.942 16.9555Z" fill="#242748"/>
<path d="M99.07 3.34H93.64C85.02 3.34 78.01 10.35 78.01 18.97V54.58H89.29V40.2H103.42V54.58H114.7V18.97C114.7 10.35 107.69 3.34 99.07 3.34ZM89.29 28.92V18.97C89.29 16.57 91.24 14.62 93.64 14.62H99.07C101.47 14.62 103.42 16.57 103.42 18.97V28.92H89.29Z" fill="#1694B1"/>
<path d="M60.07 55.06H54.64C46.02 55.06 39.01 48.05 39.01 39.43V18.98C39.01 10.36 46.02 3.35001 54.64 3.35001H60.07C68.69 3.35001 75.7 10.36 75.7 18.98V21.71H64.42V18.98C64.42 16.58 62.47 14.63 60.07 14.63H54.64C52.24 14.63 50.29 16.58 50.29 18.98V39.43C50.29 41.83 52.24 43.78 54.64 43.78H60.07C62.47 43.78 64.42 41.83 64.42 39.43V38.2L57.44 38.3L57.27 27.02L75.7 26.75V39.43C75.7 48.05 68.69 55.06 60.07 55.06Z" fill="#1694B1"/>
<path d="M39.54 16.41L35.56 9.06001C35.45 8.85001 35.22 8.72001 34.98 8.72001H32.86C32.63 8.72001 32.4 8.63001 32.23 8.47001L30.37 6.68001C30.17 6.49001 29.87 6.46001 29.64 6.62001L26.91 3.00001C26.82 2.86001 26.7 2.74001 26.56 2.65001L23.05 0.180013C22.53 -0.149987 21.84 1.3411e-05 21.51 0.510013C21.18 1.03001 21.32 1.72001 21.84 2.05001L25.16 4.38001L27.81 7.88001L27.5 8.09001C27.3 8.23001 27.24 8.50001 27.36 8.71001L28.37 10.4C28.62 10.76 28.21 11.28 28.21 11.28L25.36 14.01C25.14 14.22 25.02 14.5 25.02 14.8V17.62C25.02 17.94 25.18 18.24 25.44 18.42V24.91C25.44 26.51 26.74 27.81 28.34 27.81H32.17V31.07C32.17 31.47 32.49 31.79 32.89 31.79H35.98C36.38 31.79 36.7 31.47 36.7 31.07V20.39C36.7 20.06 36.84 19.75 37.08 19.52L39.37 17.43C39.65 17.17 39.72 16.76 39.54 16.42V16.41ZM28.34 26.31C27.56 26.31 26.93 25.68 26.93 24.9V19.12L31.67 21.33C31.97 21.47 32.16 21.77 32.16 22.11V26.32H28.33L28.34 26.31Z" fill="#1694B1"/>
<path d="M21.06 55.06H15.63C7.01 55.06 0 48.05 0 39.43V3.32001H11.28V39.42C11.28 41.82 13.23 43.77 15.63 43.77H21.06C23.46 43.77 25.41 41.82 25.41 39.42V28.99H36.69V39.42C36.69 48.04 29.68 55.05 21.06 55.05V55.06Z" fill="#1694B1"/>
<path d="M22.12 31.47H22.14C19.81 29.38 18.35 26.35 18.35 22.98C18.35 26.35 16.88 29.38 14.56 31.47H14.58C13.61 32.44 13.01 33.78 13.01 35.25C13.01 38.2 15.4 40.59 18.35 40.59C21.3 40.59 23.69 38.2 23.69 35.25C23.69 33.77 23.09 32.43 22.12 31.47ZM14.82 35.37C14.82 34.69 15.17 34.15 15.6 34.15C16.03 34.15 16.38 34.7 16.38 35.37C16.38 36.04 16.03 36.59 15.6 36.59C15.17 36.59 14.82 36.04 14.82 35.37ZM18.35 39.04C17.36 39.04 16.46 38.66 15.79 38.04C16.17 38.17 16.58 38.24 17.01 38.24C19.1 38.24 20.79 36.55 20.79 34.46C20.79 33.36 20.32 32.37 19.57 31.67C21.06 32.18 22.13 33.59 22.13 35.25C22.13 37.34 20.44 39.03 18.35 39.03V39.04Z" fill="#1694B1"/>
</g>
<defs>
<clipPath id="clip0_5_2">
<rect width="209" height="56" fill="white"/>
</clipPath>
</defs>
</svg>
