<?xml version="1.0" encoding="UTF-8"?>
<svg id="Layer_1" data-name="Layer 1" xmlns="http://www.w3.org/2000/svg" viewBox="0 0 209.73 55.97">
  <defs>
    <style>
      .cls-1 {
        fill: #1f42c0;
      }

      .cls-2 {
        fill: #242748;
      }
    </style>
  </defs>
  <path class="cls-2" d="M196.06,15.88c-.52-.85-1.3-1.52-2.21-1.92-1.16-.46-2.4-.67-3.65-.64-1.13-.03-2.26.16-3.32.56-.81.28-1.51.81-2.02,1.5-.57.84-.79,1.86-.64,2.86.15,1,.68,1.9,1.47,2.53,1.55,1.01,3.28,1.72,5.09,2.11l4.01.89c4.25.74,8.17,2.77,11.25,5.8,2.45,2.82,3.77,6.47,3.68,10.22.1,3.08-.72,6.11-2.35,8.72-1.63,2.47-3.95,4.4-6.66,5.55-3.29,1.36-6.83,2.01-10.39,1.92-3.73.09-7.43-.62-10.86-2.08-2.96-1.28-5.45-3.46-7.1-6.25-1.76-3.22-2.66-6.85-2.6-10.52h12.08c.03,1.44.43,2.84,1.16,4.08.65,1.11,1.61,1.99,2.76,2.55,1.36.58,2.83.87,4.31.83,1.23.04,2.46-.17,3.62-.61.89-.34,1.67-.92,2.27-1.67.53-.7.8-1.56.77-2.44.01-.81-.24-1.6-.72-2.25-.64-.73-1.45-1.3-2.35-1.67-1.38-.6-2.81-1.06-4.29-1.36l-4.84-1.22c-3.8-.69-7.31-2.48-10.12-5.14-1.19-1.31-2.11-2.85-2.69-4.52-.59-1.67-.83-3.45-.71-5.22-.07-3.07.79-6.09,2.46-8.66,1.73-2.54,4.13-4.54,6.94-5.77,3.13-1.44,6.54-2.15,9.98-2.08,3.42-.08,6.82.63,9.92,2.08,2.71,1.3,4.99,3.36,6.55,5.94,1.58,2.71,2.39,5.8,2.32,8.94h-12.19c-.07-1.08-.39-2.12-.94-3.05Z"/>
  <polygon class="cls-2" points="155.23 3.57 144.58 32.66 133.93 3.57 122.76 3.57 122.76 54.82 133.93 54.82 133.93 28.38 139.55 45.05 139.57 45.05 149.59 45.05 149.6 45.05 155.23 28.38 155.23 54.82 166.39 54.82 166.39 3.57 155.23 3.57"/>
  <path class="cls-1" d="M99.07,3.34h-5.43c-8.62,0-15.63,7.01-15.63,15.63v35.61h11.28v-14.38h14.13v14.38h11.28V18.97c0-8.62-7.01-15.63-15.63-15.63ZM89.29,28.92v-9.95c0-2.4,1.95-4.35,4.35-4.35h5.43c2.4,0,4.35,1.95,4.35,4.35v9.95h-14.13Z"/>
  <path class="cls-1" d="M60.07,55.06h-5.43c-8.62,0-15.63-7.01-15.63-15.63v-20.45c0-8.62,7.01-15.63,15.63-15.63h5.43c8.62,0,15.63,7.01,15.63,15.63v2.73h-11.28v-2.73c0-2.4-1.95-4.35-4.35-4.35h-5.43c-2.4,0-4.35,1.95-4.35,4.35v20.45c0,2.4,1.95,4.35,4.35,4.35h5.43c2.4,0,4.35-1.95,4.35-4.35v-1.23l-6.98.1-.17-11.28,18.43-.27v12.68c0,8.62-7.01,15.63-15.63,15.63Z"/>
  <g>
    <path class="cls-1" d="M39.54,16.41l-3.98-7.35c-.11-.21-.34-.34-.58-.34h-2.12c-.23,0-.46-.09-.63-.25l-1.86-1.79c-.2-.19-.5-.22-.73-.06h0s-2.73-3.62-2.73-3.62c-.09-.14-.21-.26-.35-.35L23.05.18c-.52-.33-1.21-.18-1.54.33-.33.52-.19,1.21.33,1.54l3.32,2.33,2.65,3.5-.31.21c-.2.14-.26.41-.14.62l1.01,1.69c.25.36-.16.88-.16.88l-2.85,2.73c-.22.21-.34.49-.34.79v2.82c0,.32.16.62.42.8v6.49c0,1.6,1.3,2.9,2.9,2.9h3.83v3.26c0,.4.32.72.72.72h3.09c.4,0,.72-.32.72-.72v-10.68c0-.33.14-.64.38-.87l2.29-2.09c.28-.26.35-.67.17-1.01ZM28.34,26.31c-.78,0-1.41-.63-1.41-1.41v-5.78l4.74,2.21c.3.14.49.44.49.78v4.21h-3.83Z"/>
    <path class="cls-1" d="M21.06,55.06h-5.43c-8.62,0-15.63-7.01-15.63-15.63V3.32h11.28v36.1c0,2.4,1.95,4.35,4.35,4.35h5.43c2.4,0,4.35-1.95,4.35-4.35v-10.43h11.28v10.43c0,8.62-7.01,15.63-15.63,15.63Z"/>
    <path class="cls-1" d="M22.12,31.47h.02c-2.33-2.09-3.79-5.12-3.79-8.49,0,3.37-1.47,6.4-3.79,8.49h.02c-.97.97-1.57,2.31-1.57,3.78,0,2.95,2.39,5.34,5.34,5.34s5.34-2.39,5.34-5.34c0-1.48-.6-2.82-1.57-3.78ZM14.82,35.37c0-.68.35-1.22.78-1.22s.78.55.78,1.22-.35,1.22-.78,1.22-.78-.55-.78-1.22ZM18.35,39.04c-.99,0-1.89-.38-2.56-1,.38.13.79.2,1.22.2,2.09,0,3.78-1.69,3.78-3.78,0-1.1-.47-2.09-1.22-2.79,1.49.51,2.56,1.92,2.56,3.58,0,2.09-1.69,3.78-3.78,3.78Z"/>
  </g>
</svg>